<svg xmlns="http://www.w3.org/2000/svg" viewBox="0 0 227.85 259.71"><defs><style>.cls-1{fill:#0ba1e2;}.cls-2{fill:#0b4f6c;}</style></defs><title>Asset 5</title><g id="Layer_2" data-name="Layer 2"><g id="Layer_1-2" data-name="Layer 1"><path class="cls-1" d="M0,259c.13-2.13.26-5.62.26-8.85v-37h8v18.73h.12c1.94-3,5.37-5,10.08-5,7.69,0,13.18,6.39,13.12,15.95,0,11.31-7.17,16.93-14.28,16.93-4.07,0-7.69-1.55-9.95-5.43H7.17L6.78,259Zm8.21-13a8.75,8.75,0,0,0,.19,1.88,7.33,7.33,0,0,0,7,5.55c5,0,8-4,8-10.33,0-5.56-2.65-10.08-7.94-10.08a7.45,7.45,0,0,0-7,5.81,9.46,9.46,0,0,0-.25,2.07Z"/><path class="cls-1" d="M47.72,239v5.49h-10V239Z"/><path class="cls-2" d="M103.7,239v5.49h-10V239Z"/><path class="cls-1" d="M53.87,259V227.54h8V259Zm0-35.43v-9.15h8v9.15Z"/><path class="cls-1" d="M79.51,218.55v9h7.56v5.94H79.51v13.89c0,3.81,1,5.82,4.07,5.82a12,12,0,0,0,3.11-.39l.12,6.07a17.48,17.48,0,0,1-5.75.78,9.17,9.17,0,0,1-6.84-2.59c-1.68-1.81-2.46-4.65-2.46-8.78v-14.8H67.24v-5.94h4.52v-7.11Z"/><path class="cls-2" d="M110.27,259c.13-2.13.26-5.62.26-8.85v-37h8v18.73h.12c1.94-3,5.37-5,10.08-5,7.69,0,13.18,6.39,13.12,15.95,0,11.31-7.17,16.93-14.28,16.93-4.07,0-7.69-1.55-10-5.43h-.13l-.39,4.72Zm8.21-13a8.75,8.75,0,0,0,.19,1.88,7.33,7.33,0,0,0,7,5.55c5,0,8-4,8-10.33,0-5.56-2.65-10.08-7.94-10.08a7.45,7.45,0,0,0-7,5.81,9.46,9.46,0,0,0-.25,2.07Z"/><path class="cls-2" d="M178.24,243c0,11.56-8.14,16.73-16.16,16.73-8.91,0-15.76-6.14-15.76-16.22,0-10.33,6.78-16.66,16.28-16.66S178.24,233.42,178.24,243Zm-23.72.32c0,6.07,3,10.66,7.82,10.66,4.52,0,7.69-4.46,7.69-10.79,0-4.91-2.2-10.53-7.62-10.53C156.79,232.64,154.52,238.07,154.52,243.3Z"/><path class="cls-2" d="M193.87,218.55v9h7.56v5.94h-7.56v13.89c0,3.81,1,5.82,4.07,5.82a11.85,11.85,0,0,0,3.1-.39l.13,6.07a17.48,17.48,0,0,1-5.75.78,9.19,9.19,0,0,1-6.85-2.59c-1.68-1.81-2.45-4.65-2.45-8.78v-14.8h-4.53v-5.94h4.53v-7.11Z"/><path class="cls-2" d="M207.05,251.7a17.69,17.69,0,0,0,8.07,2.26c3.49,0,5-1.42,5-3.49s-1.29-3.23-5.17-4.58c-6.13-2.14-8.72-5.5-8.65-9.18,0-5.56,4.58-9.88,11.89-9.88a18.48,18.48,0,0,1,8.33,1.87L225,234.32a14.1,14.1,0,0,0-6.66-1.81c-2.84,0-4.39,1.36-4.39,3.3s1.49,3,5.49,4.39c5.69,2.07,8.34,5,8.4,9.63,0,5.68-4.46,9.82-12.79,9.82a20.3,20.3,0,0,1-9.56-2.2Z"/><rect class="cls-2" x="100.4" y="151.14" width="7.11" height="10.13" rx="3.56"/><rect class="cls-2" x="110.37" y="151.14" width="7.11" height="10.13" rx="3.56"/><rect class="cls-2" x="120.34" y="151.14" width="7.11" height="10.13" rx="3.56"/><path class="cls-2" d="M72.27,101.73a15.91,15.91,0,0,1,31.47,0h20.37a15.91,15.91,0,0,1,31.47,0h19.95A35.22,35.22,0,0,0,140.41,67h-53a35.23,35.23,0,0,0-35.12,34.72Z"/><path class="cls-2" d="M155.58,106.48a15.91,15.91,0,0,1-31.47,0H103.74a15.91,15.91,0,0,1-31.47,0H52.32A35.23,35.23,0,0,0,87.44,141.2h53a35.22,35.22,0,0,0,35.12-34.72Z"/><path class="cls-1" d="M200.41,104.1a14.59,14.59,0,0,0-6.63-12.23c2.72-16.93-.05-30.67-8.3-40.87-10.71-13.24-30.26-20.45-59.57-21.94a14.65,14.65,0,0,0-8.58-5.83l.76-9.52a7.49,7.49,0,1,0-8.33,0l.76,9.52A14.6,14.6,0,0,0,102,29.06C72.63,30.55,53.08,37.76,42.37,51c-8.25,10.2-11,23.94-8.3,40.87a14.62,14.62,0,0,0-.63,24C31,132,33.85,145.31,42,155.65c12.4,15.79,36.61,23.8,72,23.8s59.54-8,71.95-23.8c8.12-10.34,11-23.69,8.53-39.73A14.61,14.61,0,0,0,200.41,104.1Zm-21.48,46.1c-10.64,13.55-32.51,20.42-65,20.42s-54.37-6.87-65-20.42c-7.65-9.73-9.45-23.17-5.36-39.94,1.63-6.72,1.49-8.65,0-15.5C40,78.14,41.88,65.65,49.24,56.55c10.32-12.76,31.48-19,64.69-19s54.36,6.2,64.68,19c7.36,9.1,9.21,21.59,5.66,38.21-1.47,6.85-1.61,8.78,0,15.5C188.38,127,186.58,140.47,178.93,150.2Z"/></g></g></svg>